<svg width="373" height="425" viewBox="0 0 373 425" fill="none" xmlns="http://www.w3.org/2000/svg">
<g clip-path="url(#clip0_230_261)">
<path d="M130.456 49.6577L121.618 59.7528L66.5486 43.7139L130.456 49.6577Z" fill="#FFD844"/>
<path d="M119.228 80.8235L121.65 59.7528L66.5806 43.7139L113.504 68.5585L119.228 80.8235Z" fill="#F6AF00"/>
<path d="M98.6284 83.6225L113.504 68.5585L66.5806 43.7139L98.6284 83.6225Z" fill="#FFD844"/>
<path d="M345.373 314.532C345.373 314.532 341.882 309.491 347.183 304.829C347.177 304.847 350.728 309.016 345.373 314.532Z" fill="#CEA6DC"/>
<path d="M351.3 310.39C351.3 310.39 351.458 305.811 356.306 306.643C356.295 306.649 356.145 311.416 351.3 310.39Z" fill="#CEA6DC"/>
<path d="M337.313 322.191C337.313 322.191 332.864 316.41 338.396 310.225C338.372 310.237 342.511 314.924 337.313 322.191Z" fill="#CEA6DC"/>
<path d="M329.526 331.219C329.526 331.219 322.002 324.827 328.833 315.162C328.833 315.162 335.531 320.414 329.526 331.219Z" fill="#CEA6DC"/>
<path d="M321.412 343.707C321.412 343.707 313.301 336.848 320.719 327.649C320.712 327.667 326.601 333.455 321.412 343.707Z" fill="#CEA6DC"/>
<path d="M340.989 318.243C340.989 318.243 344.692 322.655 350.845 318.211C350.845 318.211 346.272 314.121 340.989 318.243Z" fill="#CEA6DC"/>
<path d="M332.987 326.825C332.987 326.825 338.759 332.428 344.904 326.786C344.904 326.786 339.38 321.16 332.987 326.825Z" fill="#CEA6DC"/>
<path d="M325.791 336.456C325.791 336.456 331.573 343.264 340.175 336.415C340.175 336.415 333.412 329.836 325.791 336.456Z" fill="#CEA6DC"/>
<path d="M318.379 349.87C318.379 349.87 326.094 355.371 332.317 346.344C332.317 346.344 325.564 341.3 318.379 349.87Z" fill="#CEA6DC"/>
<path d="M314.778 359.286L313.607 358.861C313.738 358.501 327.297 322.777 354.836 307.158L355.433 308.211C328.299 323.61 314.927 358.932 314.778 359.286Z" fill="#CEA6DC"/>
<path d="M326.101 335.639C325.36 335.371 324.977 334.552 325.246 333.811C325.515 333.071 326.334 332.688 327.074 332.957C327.815 333.226 328.198 334.044 327.929 334.785C327.66 335.526 326.841 335.908 326.101 335.639Z" fill="#FF6231"/>
<path d="M322.379 344.698C321.638 344.429 321.255 343.61 321.524 342.869C321.793 342.129 322.612 341.746 323.352 342.015C324.093 342.284 324.476 343.102 324.207 343.843C323.938 344.584 323.119 344.966 322.379 344.698Z" fill="#FF6231"/>
<path d="M331.967 330.83C331.332 330.599 331.004 329.898 331.234 329.263C331.465 328.628 332.166 328.3 332.801 328.53C333.436 328.761 333.764 329.462 333.534 330.097C333.303 330.732 332.602 331.06 331.967 330.83Z" fill="#FF6231"/>
<path d="M341.694 316.579C341.165 316.387 340.891 315.802 341.083 315.273C341.275 314.744 341.86 314.471 342.389 314.663C342.918 314.855 343.191 315.44 342.999 315.969C342.807 316.498 342.223 316.771 341.694 316.579Z" fill="#FF6231"/>
<path d="M12.75 336C12.75 336 15.1533 336.376 18.9185 337.18C19.1552 337.23 19.2814 345.071 19.2814 345.071C19.2814 345.071 20.1235 337.441 20.37 337.496C21.4934 337.746 22.7101 338.029 23.9985 338.345C24.1902 338.393 23.2728 347.611 23.2728 347.611C23.2728 347.611 24.9164 338.574 25.0871 338.617C26.4749 338.968 27.9346 339.356 29.4413 339.783C29.6821 339.851 27.2642 350.877 27.2642 350.877C27.2642 350.877 30.6499 340.13 30.8928 340.202C32.6675 340.724 34.4945 341.298 36.3356 341.926C36.42 341.955 35.4731 345.077 34.5249 348.204L32.707 354.506C32.707 354.506 37.2304 342.235 37.4242 342.303C39.3672 342.987 41.3174 343.731 43.2299 344.537C43.3644 344.594 38.1499 358.86 38.1499 358.86C38.1499 358.86 44.0905 344.905 44.3184 345.005C46.6381 346.021 48.8886 347.13 50.9877 348.337C51.185 348.451 42.867 363.577 42.867 363.577C42.867 363.577 52.0616 348.971 52.3012 349.118C54.9456 350.744 57.3041 352.537 59.1956 354.506C59.4234 354.743 47.2213 368.294 47.2213 368.294C47.2213 368.294 60.3931 355.841 60.6469 356.156C62.738 358.75 64.3733 361.78 65.6466 365.028C65.7591 365.315 50.9877 375.551 50.9877 375.551C50.9877 375.551 66.2041 366.525 66.3135 366.843C67.3413 369.828 68.0906 372.957 68.6297 376.07C68.6836 376.381 55.9298 383.534 55.9298 383.534C55.9298 383.534 68.8614 377.487 68.8978 377.728C69.3105 380.473 69.5683 383.184 69.7183 385.751C69.7389 386.104 61.3726 390.791 61.3726 390.791C61.3726 390.791 69.8072 387.529 69.8207 387.888C70.1383 396.347 69.3554 402.765 69.3554 402.765C69.3554 402.765 62.7833 401.827 54.4784 399.233C54 399.083 54.9673 388.412 54.4784 388.251C53.9989 388.094 52.0634 398.447 51.5755 398.279C49.2119 397.463 46.7598 396.517 44.3184 395.425C43.8339 395.209 47.7041 380.496 47.2213 380.268C46.8576 380.097 42.1404 394.412 41.7784 394.233C39.0089 392.868 36.2985 391.307 33.7956 389.527C33.4281 389.266 41.7736 374.371 41.4156 374.1C41.0515 373.825 31.984 388.174 31.6306 387.888C29.5949 386.245 27.7451 384.435 26.1756 382.445C25.986 382.205 36.52 368.906 36.3356 368.657C35.989 368.19 24.9307 380.763 24.6022 380.268C23.2082 378.17 21.9749 375.838 20.8843 373.374C20.7092 372.978 32.1492 363.616 31.9813 363.214C31.7463 362.651 19.9069 371.045 19.6858 370.471C18.8195 368.223 18.0586 365.902 17.3908 363.577C17.2866 363.214 27.3639 357.771 27.2642 357.408C27.1311 356.924 16.8227 361.52 16.6974 361.037C16.1227 358.821 15.6288 356.624 15.2049 354.506C15.0825 353.894 21.5695 350.749 21.4585 350.151C21.3905 349.785 14.721 351.962 14.6571 351.603C14.2019 349.039 13.85 346.644 13.5798 344.537C13.5235 344.098 17.4403 345.485 17.3908 345.071C17.3357 344.61 13.3151 342.352 13.2681 341.926C12.8661 338.289 12.75 336 12.75 336Z" fill="#CEA6DC"/>
<path d="M34.8843 411.651C34.8843 411.651 35.3991 410.849 36.2832 409.627C36.3388 409.55 39.208 410.754 39.208 410.754C39.208 410.754 36.5677 409.236 36.6264 409.157C36.894 408.794 37.1881 408.402 37.5058 407.991C37.5531 407.929 40.7588 409.727 40.7588 409.727C40.7588 409.727 37.7331 407.698 37.7756 407.643C38.1214 407.201 38.4921 406.74 38.8842 406.267C38.9468 406.192 42.5733 408.816 42.5733 408.816C42.5733 408.816 39.2005 405.889 39.2647 405.814C39.7336 405.26 40.2296 404.696 40.7474 404.136C40.7711 404.11 41.7568 404.948 42.7438 405.786L44.748 407.442C44.748 407.442 41.0004 403.864 41.0557 403.806C41.6098 403.218 42.1869 402.637 42.7807 402.079C42.8225 402.04 47.1863 406.184 47.1863 406.184C47.1863 406.184 43.0497 401.829 43.1218 401.763C43.8557 401.093 44.6128 400.463 45.3816 399.902C45.4539 399.85 49.6424 405.243 49.6424 405.243C49.6424 405.243 45.7807 399.618 45.872 399.556C46.8787 398.866 47.9012 398.306 48.9142 397.941C49.0362 397.897 52.0414 404.433 52.0414 404.433C52.0414 404.433 49.5879 397.725 49.7423 397.684C51.0138 397.347 52.3722 397.243 53.7527 397.304C53.8747 397.31 55.271 404.239 55.271 404.239C55.271 404.239 54.3842 397.343 54.5169 397.354C55.7634 397.461 57.0181 397.691 58.2343 397.994C58.3558 398.024 58.9492 403.738 58.9492 403.738C58.9492 403.738 58.7856 398.136 58.8791 398.162C59.9416 398.451 60.9672 398.791 61.9237 399.146C62.0549 399.195 62.4424 402.943 62.4424 402.943C62.4424 402.943 62.5836 399.397 62.7163 399.45C65.8402 400.684 68.0493 401.987 68.0493 401.987C68.0493 401.987 66.6748 404.195 64.4256 406.76C64.2961 406.908 60.5703 404.861 60.4351 405.011C60.3025 405.157 63.7604 407.502 63.6225 407.65C62.9542 408.367 62.2246 409.096 61.4441 409.798C61.2893 409.937 56.5516 406.205 56.3928 406.341C56.2732 406.445 60.7332 410.418 60.6115 410.519C59.6798 411.295 58.6861 412.018 57.6457 412.632C57.493 412.723 53.3928 407.356 53.238 407.441C53.0807 407.528 56.8689 413.066 56.7096 413.148C55.7923 413.616 54.8437 413.991 53.8738 414.237C53.7566 414.267 50.5805 408.369 50.4612 408.396C50.2368 408.445 53.0665 414.415 52.8352 414.454C51.8533 414.62 50.812 414.691 49.7451 414.689C49.5738 414.689 47.9709 409.094 47.7984 409.09C47.5568 409.085 48.745 414.669 48.5017 414.657C47.5486 414.609 46.5855 414.512 45.6354 414.381C45.4872 414.361 45.0943 409.879 44.9468 409.857C44.7499 409.827 44.7986 414.257 44.6034 414.225C43.7078 414.078 42.8318 413.905 41.9952 413.72C41.7536 413.666 41.631 410.838 41.3965 410.783C41.2528 410.749 40.9949 413.488 40.8542 413.454C39.851 413.208 38.9253 412.953 38.1172 412.714C37.9486 412.664 39.0687 411.48 38.9107 411.432C38.7344 411.379 37.2813 412.461 37.1192 412.41C35.7343 411.974 34.8843 411.651 34.8843 411.651Z" fill="#4043AF"/>
<path opacity="0.3" d="M23.9985 350.151C23.9985 350.151 44.3184 363.577 58.8327 390.791" stroke="white" stroke-width="0.5"/>
<path d="M316.115 398.831C316.115 401.931 315.047 404.515 312.942 406.551C310.805 408.102 308.7 409.135 305.495 409.135L71.1007 409.561C68.4299 409.561 65.7592 408.527 63.6227 407.007C61.4861 404.94 60.4178 402.387 60.4178 399.287L60.135 243.268H315.833L316.115 398.831Z" fill="url(#paint0_linear_230_261)"/>
<path d="M312.93 406.508C310.791 408.112 308.684 409.181 305.476 409.181L70.8575 409.622C68.1842 409.622 65.5109 408.552 63.3723 406.98L187.947 299.582L312.93 406.508Z" fill="url(#paint1_linear_230_261)"/>
<path d="M315.824 242.282L279.593 268.479L194.929 329.427C190.683 332.635 184.802 332.635 180.525 329.458L96.1749 268.825L59.8813 242.754L96.0806 216.557L174.895 159.886L180.745 155.609C184.99 152.401 190.872 152.401 195.149 155.578L201.03 159.823L238.928 186.932L257.609 200.235L279.499 216.18L315.824 242.282Z" fill="url(#paint2_linear_230_261)"/>
<g filter="url(#filter0_d_230_261)">
<path d="M279.481 192.782L279.607 268.479L194.942 329.427C190.697 332.635 184.816 332.635 180.538 329.458L96.1887 268.825L96 170.736C96 164.887 100.78 160.075 106.63 160.043L267.543 159.81C274.195 159.8 279.586 165.203 279.561 171.855L279.481 192.782Z" fill="#FAF9F9"/>
</g>
<path d="M145.86 243.156C143.62 243.156 141.912 242.54 140.736 241.308C139.579 240.057 139 238.303 139 236.044V231H142.052V236.016C142.052 237.173 142.239 238.069 142.612 238.704C142.985 239.339 143.461 239.787 144.04 240.048C144.619 240.309 145.225 240.44 145.86 240.44C146.569 240.44 147.213 240.319 147.792 240.076C148.371 239.815 148.828 239.367 149.164 238.732C149.519 238.097 149.696 237.192 149.696 236.016V231H152.72V236.044C152.72 238.34 152.141 240.104 150.984 241.336C149.845 242.549 148.137 243.156 145.86 243.156Z" fill="#4043AF"/>
<path d="M160.02 242.764H157.164V227H163.492C165.247 227 166.61 227.439 167.58 228.316C168.551 229.193 169.036 230.519 169.036 232.292C169.036 233.841 168.532 235.055 167.524 235.932C166.535 236.809 165.191 237.248 163.492 237.248H160.02V242.764ZM163.1 229.324H160.02V235.148H163.1C164.108 235.148 164.92 234.905 165.536 234.42C166.152 233.935 166.46 233.207 166.46 232.236C166.46 231.247 166.152 230.519 165.536 230.052C164.939 229.567 164.127 229.324 163.1 229.324Z" fill="#4043AF"/>
<g opacity="0.6">
<path d="M172.678 242.764V227H175.534V240.328H183.318V242.764H172.678Z" fill="#4043AF"/>
<path d="M185.998 242.764L191.038 227H195.714L200.894 242.764H197.842L196.498 238.312H190.366L189.022 242.764H185.998ZM193.418 228.204L191.038 236.1H195.826L193.418 228.204Z" fill="#4043AF"/>
<path d="M215.129 227H218.097V242.764H212.665L207.261 228.26H207.205V242.764H204.265V227H209.305L215.073 241.504H215.129V227Z" fill="#4043AF"/>
<path d="M237.066 234.868C237.066 236.94 236.655 238.555 235.834 239.712C235.031 240.851 233.893 241.644 232.418 242.092C230.943 242.54 229.207 242.764 227.21 242.764H222.87V227H227.21C229.207 227 230.943 227.299 232.418 227.896C233.893 228.475 235.031 229.343 235.834 230.5C236.655 231.657 237.066 233.113 237.066 234.868ZM225.698 240.412H228.022C229.254 240.412 230.318 240.272 231.214 239.992C232.11 239.693 232.801 239.143 233.286 238.34C233.771 237.537 234.014 236.371 234.014 234.84C234.014 233.029 233.473 231.685 232.39 230.808C231.326 229.912 229.87 229.464 228.022 229.464H225.698V240.412Z" fill="#4043AF"/>
</g>
<circle cx="140.5" cy="228.5" r="1.5" fill="#FF6231"/>
<circle cx="151.2" cy="228.5" r="1.5" fill="#FF6231"/>
<path d="M187.956 349.927C198.425 349.927 206.911 341.437 206.911 330.964C206.911 320.49 198.425 312 187.956 312C177.487 312 169 320.49 169 330.964C169 341.437 177.487 349.927 187.956 349.927Z" fill="url(#paint3_linear_230_261)"/>
<path d="M197.646 330.964L182.312 322.121V339.806L197.646 330.964Z" fill="white"/>
<path opacity="0.31" d="M13.1579 190.788C13.1579 192.203 11.9942 193.367 10.5789 193.367C9.16367 193.367 8 192.203 8 190.788C8 189.373 9.16367 188.209 10.5789 188.209C11.9942 188.209 13.1579 189.373 13.1579 190.788Z" fill="white"/>
<path opacity="0.31" d="M8 182.58C13.9441 182.58 18.7874 187.424 18.7874 193.367H22.3098C22.3098 185.474 15.894 179.058 8 179.058V182.58Z" fill="#C5D5FF"/>
<path opacity="0.31" d="M8 173.397C19.0076 173.397 27.9709 182.36 27.9709 193.367H31.9965C31.9965 180.127 21.2405 169.372 8 169.372V173.397Z" fill="#C5D5FF"/>
<path opacity="0.31" d="M8 164.34C24.0082 164.34 37.0286 177.36 37.0286 193.367H41.3687C41.3687 174.97 26.3984 160 8 160V164.34Z" fill="#C5D5FF"/>
<path opacity="0.31" d="M313.158 129.134C313.987 129.134 314.658 128.462 314.658 127.634V123.023C314.658 122.195 313.987 121.523 313.158 121.523H311.199C310.884 120.359 310.412 119.259 309.815 118.221L311.207 116.829C311.793 116.243 311.793 115.293 311.207 114.707L307.951 111.451C307.365 110.865 306.415 110.865 305.829 111.451L304.437 112.843C303.399 112.246 302.298 111.774 301.135 111.459V109.5C301.135 108.672 300.463 108 299.635 108H295.024C294.195 108 293.524 108.672 293.524 109.5V111.459C292.36 111.774 291.259 112.246 290.221 112.843L288.829 111.451C288.243 110.865 287.293 110.865 286.708 111.451L283.451 114.707C282.865 115.293 282.865 116.243 283.451 116.829L284.843 118.221C284.246 119.259 283.774 120.359 283.46 121.523H281.5C280.672 121.523 280 122.195 280 123.023V127.634C280 128.462 280.672 129.134 281.5 129.134H283.46C283.774 130.297 284.246 131.398 284.843 132.436L283.451 133.828C282.865 134.414 282.865 135.364 283.451 135.949L286.708 139.206C287.293 139.792 288.243 139.792 288.829 139.206L290.221 137.814C291.259 138.411 292.36 138.883 293.524 139.197V141.157C293.524 141.985 294.195 142.657 295.024 142.657H299.635C300.463 142.657 301.135 141.985 301.135 141.157V139.197C302.298 138.883 303.399 138.411 304.437 137.814L305.829 139.206C306.415 139.792 307.365 139.792 307.951 139.206L311.207 135.949C311.793 135.364 311.793 134.414 311.207 133.828L309.815 132.436C310.412 131.398 310.884 130.297 311.199 129.134H313.158ZM297.298 132.09C293.555 132.09 290.504 129.039 290.504 125.297C290.504 121.554 293.555 118.504 297.298 118.504C301.04 118.504 304.091 121.554 304.091 125.297C304.059 129.071 301.04 132.09 297.298 132.09Z" fill="#C5D5FF"/>
<path opacity="0.31" d="M23.3449 104C24.1733 104 24.8448 103.328 24.8448 102.5V101.407C25.7091 101.155 26.5374 100.831 27.3296 100.363L28.1055 101.139C28.6913 101.725 29.6411 101.725 30.2268 101.139L32.1388 99.2269C32.7246 98.6411 32.7246 97.6913 32.1388 97.1055L31.3629 96.3296C31.795 95.5734 32.1551 94.7091 32.4072 93.8449H33.5C34.3284 93.8449 35 93.1733 35 92.3449V89.6551C35 88.8267 34.3284 88.1551 33.5 88.1551H32.4072C32.1551 87.2909 31.831 86.4626 31.3629 85.6704L32.1388 84.8945C32.7246 84.3087 32.7246 83.3589 32.1388 82.7731L30.2268 80.8612C29.6411 80.2754 28.6913 80.2754 28.1055 80.8612L27.3296 81.6371C26.5734 81.205 25.7091 80.8449 24.8448 80.5928V79.5C24.8448 78.6716 24.1733 78 23.3448 78H20.6551C19.8267 78 19.1551 78.6716 19.1551 79.5V80.5928C18.2909 80.8449 17.4626 81.169 16.6704 81.6371L15.8945 80.8612C15.3087 80.2754 14.3589 80.2754 13.7731 80.8612L11.8612 82.7731C11.2754 83.3589 11.2754 84.3087 11.8612 84.8945L12.6371 85.6704C12.205 86.4266 11.8449 87.2909 11.5928 88.1551H10.5C9.67157 88.1551 9 88.8267 9 89.6551V92.3449C9 93.1733 9.67157 93.8449 10.5 93.8449H11.5928C11.8449 94.7091 12.169 95.5374 12.6371 96.3296L11.8612 97.1055C11.2754 97.6913 11.2754 98.6411 11.8612 99.2269L13.7731 101.139C14.3589 101.725 15.3087 101.725 15.8945 101.139L16.6704 100.363C17.4266 100.795 18.2909 101.155 19.1551 101.407V102.5C19.1551 103.328 19.8267 104 20.6551 104H23.3449ZM16.9224 91C16.9224 88.1911 19.1911 85.9224 22 85.9224C24.8089 85.9224 27.0776 88.1911 27.0776 91C27.0776 93.8089 24.8089 96.0776 22 96.0776C19.1911 96.0776 16.9224 93.8089 16.9224 91Z" fill="#C5D5FF"/>
<path opacity="0.31" d="M300 59.9312L303.837 71.9132H325.506L321.669 59.9312H300Z" fill="#C5D5FF"/>
<path opacity="0.31" d="M321.669 59.2078H322.172L322.33 59.711L325.506 69.5545V57.5724H308.397L307.454 56H303.837V59.2078H321.669Z" fill="#C5D5FF"/>
<path opacity="0.31" d="M148 48.7813L170.864 60.386L190.647 29L148 48.7813Z" fill="#C5D5FF"/>
<path opacity="0.1" d="M190.647 29L156.806 53.2471V66.0468L162.624 56.2033L190.647 29Z" fill="#04659B"/>
<path opacity="0.1" d="M190.647 29L156.806 53.2471V66.0468L162.624 56.2033L190.647 29Z" fill="#C5D5FF"/>
<path opacity="0.3" d="M83 230.5C83 230.5 41.5002 189.5 64.5 155C87.4999 120.5 222 147.516 222 107.5C222 94.4264 217.304 84.6476 199.5 84.9998C179.172 85.402 186 122 211.5 132C226.462 137.867 268 129.5 260.5 92.4999C253 55.4999 194.5 62.5 171.5 84.9998C148.5 107.5 149.809 133.142 132.5 121.5C121.587 114.159 122 89.4999 122 89.4999" stroke="#5437B2" stroke-width="2" stroke-linecap="round" stroke-dasharray="1 8"/>
<path d="M112.226 348.157C112.226 348.157 112.976 342.253 119.148 343.907C119.133 343.913 118.371 350.062 112.226 348.157Z" fill="#4043AF"/>
<path d="M92.7276 361.754C92.7276 361.754 87.662 353.745 95.5547 346.405C95.5216 346.417 100.317 352.974 92.7276 361.754Z" fill="#4043AF"/>
<path d="M81.5787 372.503C81.5787 372.503 72.6083 363.338 82.5965 351.65C82.5965 351.65 90.634 359.242 81.5787 372.503Z" fill="#FF6231"/>
<path d="M69.5936 387.688C69.5936 387.688 59.9206 377.85 70.6114 366.835C70.6008 366.858 77.5274 375.047 69.5936 387.688Z" fill="#4043AF"/>
<path d="M86.5788 367.232C86.5788 367.232 93.3774 375.168 101.998 368.603C101.998 368.603 95.5237 360.667 86.5788 367.232Z" fill="#4043AF"/>
<path d="M76.1224 378.831C76.1224 378.831 82.7898 388.327 94.7325 380.494C94.7325 380.494 86.7689 371.178 76.1224 378.831Z" fill="#4043AF"/>
<path d="M64.9366 395.299C64.9366 395.299 74.2597 403.333 83.3849 392.399C83.3849 392.399 75.2515 385.07 64.9366 395.299Z" fill="#FF6231"/>
<path d="M59.1549 407.048L57.6915 406.359C57.9037 405.909 79.7016 361.317 117.185 344.399L117.831 345.831C80.8985 362.514 59.3896 406.609 59.1549 407.048Z" fill="#4043AF"/>
<path d="M76.6206 377.812C75.6945 377.376 75.2973 376.272 75.7334 375.345C76.1696 374.419 77.2738 374.022 78.1999 374.458C79.126 374.894 79.5232 375.999 79.087 376.925C78.6509 377.851 77.5466 378.248 76.6206 377.812Z" fill="#FF6231"/>
<path d="M70.7265 389.084C69.8004 388.648 69.4033 387.544 69.8394 386.618C70.2755 385.692 71.3798 385.295 72.3059 385.731C73.2319 386.167 73.6291 387.271 73.193 388.197C72.7569 389.123 71.6526 389.521 70.7265 389.084Z" fill="#FF6231"/>
<path d="M84.7815 372.29C83.9878 371.917 83.6473 370.97 84.0211 370.176C84.395 369.383 85.3415 369.042 86.1353 369.416C86.929 369.79 87.2695 370.736 86.8956 371.53C86.5218 372.324 85.5753 372.664 84.7815 372.29Z" fill="#FF6231"/>
<path d="M99.0624 355.017C98.4009 354.705 98.1172 353.917 98.4287 353.255C98.7402 352.594 99.529 352.31 100.19 352.621C100.852 352.933 101.136 353.722 100.824 354.383C100.513 355.045 99.7238 355.328 99.0624 355.017Z" fill="#FF6231"/>
<path d="M104.986 354.701C104.325 354.39 104.041 353.601 104.353 352.94C104.664 352.278 105.453 351.995 106.115 352.306C106.776 352.618 107.06 353.406 106.748 354.068C106.437 354.729 105.648 355.013 104.986 354.701Z" fill="#FF6231"/>
<path d="M109.14 349.034C108.479 348.723 108.195 347.934 108.507 347.273C108.818 346.611 109.607 346.328 110.268 346.639C110.93 346.951 111.214 347.739 110.902 348.401C110.59 349.062 109.802 349.346 109.14 349.034Z" fill="#FF6231"/>
<path d="M105.764 350.7C105.102 350.388 104.818 349.599 105.13 348.938C105.441 348.276 106.23 347.993 106.892 348.304C107.553 348.616 107.837 349.404 107.525 350.066C107.214 350.727 106.425 351.011 105.764 350.7Z" fill="#FF6231"/>
<path d="M102.387 352.365C101.725 352.053 101.442 351.264 101.753 350.603C102.065 349.941 102.853 349.658 103.515 349.969C104.176 350.281 104.46 351.069 104.149 351.731C103.837 352.392 103.048 352.676 102.387 352.365Z" fill="#FF6231"/>
<path d="M102.13 356.834C101.468 356.522 101.184 355.734 101.496 355.072C101.807 354.411 102.596 354.127 103.258 354.438C103.919 354.75 104.203 355.539 103.891 356.2C103.58 356.862 102.791 357.145 102.13 356.834Z" fill="#FF6231"/>
<path d="M107.843 352.569C107.182 352.258 106.898 351.469 107.209 350.807C107.521 350.146 108.31 349.862 108.971 350.174C109.633 350.485 109.916 351.274 109.605 351.935C109.293 352.597 108.505 352.881 107.843 352.569Z" fill="#FF6231"/>
<path d="M111.687 350.385C111.026 350.073 110.742 349.284 111.054 348.623C111.365 347.961 112.154 347.678 112.815 347.989C113.477 348.301 113.761 349.089 113.449 349.751C113.138 350.412 112.349 350.696 111.687 350.385Z" fill="#FF6231"/>
<path style="mix-blend-mode:multiply" opacity="0.59" d="M260.237 426.074C242.587 415.967 242.587 399.412 260.237 389.305C277.887 379.199 306.692 379.199 324.245 389.305C341.798 399.412 341.798 415.967 324.245 426.074C306.692 436.18 277.887 436.212 260.237 426.074Z" fill="url(#paint4_radial_230_261)"/>
<path d="M321.256 401.112C326.527 397.58 330.844 392.803 333.821 387.206C336.799 381.609 338.347 375.365 338.327 369.029V357.703C338.321 356.132 337.902 354.59 337.113 353.231C336.323 351.872 335.191 350.743 333.827 349.958C332.464 349.172 330.919 348.757 329.345 348.753C327.77 348.75 326.223 349.159 324.857 349.939L316.819 354.559L321.031 361.81L329.068 357.19C329.149 357.122 329.252 357.084 329.357 357.084C329.463 357.084 329.566 357.122 329.647 357.19C329.739 357.239 329.816 357.313 329.867 357.404C329.918 357.495 329.942 357.599 329.936 357.703V369.029C329.943 373.973 328.73 378.842 326.403 383.207C324.076 387.572 320.707 391.297 316.594 394.054L321.256 401.112Z" fill="#1C1C7D"/>
<path d="M262.97 348.495H321.449V404.546C321.449 417.675 302.196 421.005 292.615 421.005C282.923 421.086 262.813 416.9 263.002 404.065L262.97 348.495Z" fill="url(#paint5_linear_230_261)"/>
<path d="M271.636 360.324C260.121 354.211 260.121 343.911 271.636 337.676C278.116 334.601 285.27 333 292.524 333C299.779 333 306.933 334.601 313.413 337.676C324.862 343.789 324.862 354.089 313.413 360.324C306.933 363.399 299.779 365 292.524 365C285.27 365 278.116 363.399 271.636 360.324Z" fill="#99A7D8"/>
<path d="M273.066 359.598C262.311 353.775 262.311 344.225 273.066 338.402C279.097 335.508 285.763 334 292.525 334C299.286 334 305.953 335.508 311.983 338.402C322.672 344.225 322.672 353.775 311.983 359.598C305.953 362.492 299.286 364 292.525 364C285.763 364 279.097 362.492 273.066 359.598Z" fill="url(#paint6_linear_230_261)"/>
<path d="M275.404 360.774C265.532 356.503 265.532 349.497 275.404 345.226C286.734 340.925 299.414 340.925 310.744 345.226C320.419 349.497 320.419 356.503 310.744 360.774C299.414 365.075 286.734 365.075 275.404 360.774Z" fill="#735E5E"/>
<path d="M268 354.645C269.678 352.452 272.128 350.924 274.892 350.347C286.417 347.218 298.616 347.218 310.141 350.347C312.893 350.931 315.331 352.459 317 354.645C315.601 357.429 313.146 359.59 310.141 360.682C298.84 365.106 286.193 365.106 274.892 360.682C271.873 359.6 269.404 357.437 268 354.645Z" fill="#5E4545"/>
</g>
<defs>
<filter id="filter0_d_230_261" x="81" y="144.81" width="203.607" height="192.027" filterUnits="userSpaceOnUse" color-interpolation-filters="sRGB">
<feFlood flood-opacity="0" result="BackgroundImageFix"/>
<feColorMatrix in="SourceAlpha" type="matrix" values="0 0 0 0 0 0 0 0 0 0 0 0 0 0 0 0 0 0 127 0" result="hardAlpha"/>
<feOffset dx="-5" dy="-5"/>
<feGaussianBlur stdDeviation="5"/>
<feColorMatrix type="matrix" values="0 0 0 0 0.141176 0 0 0 0 0.113725 0 0 0 0 0.619608 0 0 0 0.1 0"/>
<feBlend mode="normal" in2="BackgroundImageFix" result="effect1_dropShadow_230_261"/>
<feBlend mode="normal" in="SourceGraphic" in2="effect1_dropShadow_230_261" result="shape"/>
</filter>
<linearGradient id="paint0_linear_230_261" x1="316.115" y1="326.414" x2="60.135" y2="326.414" gradientUnits="userSpaceOnUse">
<stop stop-color="#FFA979"/>
<stop offset="1" stop-color="#FFC09E"/>
</linearGradient>
<linearGradient id="paint1_linear_230_261" x1="312.93" y1="354.602" x2="63.3723" y2="354.602" gradientUnits="userSpaceOnUse">
<stop stop-color="#F99373"/>
<stop offset="1" stop-color="#FFA979"/>
</linearGradient>
<linearGradient id="paint2_linear_230_261" x1="315.824" y1="242.518" x2="59.8813" y2="242.518" gradientUnits="userSpaceOnUse">
<stop stop-color="#F99373"/>
<stop offset="1" stop-color="#FFA979"/>
</linearGradient>
<linearGradient id="paint3_linear_230_261" x1="178.287" y1="298.983" x2="206.482" y2="392.292" gradientUnits="userSpaceOnUse">
<stop stop-color="#FF6570"/>
<stop offset="1" stop-color="#EC374F"/>
</linearGradient>
<radialGradient id="paint4_radial_230_261" cx="0" cy="0" r="1" gradientUnits="userSpaceOnUse" gradientTransform="translate(292.193 520.895) rotate(180) scale(45.1689 24.7929)">
<stop offset="0.53" stop-color="#48486A"/>
<stop offset="0.59" stop-color="#6F6F8A"/>
<stop offset="0.65" stop-color="#9B9BAD"/>
<stop offset="0.72" stop-color="#BFBFCB"/>
<stop offset="0.79" stop-color="#DBDBE2"/>
<stop offset="0.86" stop-color="#EFEFF2"/>
<stop offset="0.93" stop-color="#FBFBFC"/>
<stop offset="1" stop-color="white"/>
</radialGradient>
<linearGradient id="paint5_linear_230_261" x1="321.449" y1="348.495" x2="249.379" y2="366.441" gradientUnits="userSpaceOnUse">
<stop stop-color="#2A2895"/>
<stop offset="1" stop-color="#793BC8"/>
</linearGradient>
<linearGradient id="paint6_linear_230_261" x1="-14577.9" y1="7495.9" x2="-15492" y2="7495.9" gradientUnits="userSpaceOnUse">
<stop offset="0.02" stop-color="#5C629E"/>
<stop offset="0.37" stop-color="#565B8F"/>
<stop offset="1" stop-color="#48486A"/>
</linearGradient>
<clipPath id="clip0_230_261">
<rect width="373" height="425" fill="white"/>
</clipPath>
</defs>
</svg>
